<svg width="430" height="932" viewBox="0 0 430 932" fill="none" xmlns="http://www.w3.org/2000/svg">
<rect width="430" height="932" fill="white"/>
<rect width="430" height="75" fill="black"/>
<g clip-path="url(#clip0_5_936)">
<path d="M24.0256 28.2727H26.4432L32.1278 42.1577H32.3239L38.0085 28.2727H40.4261V45H38.5312V32.2912H38.3679L33.1406 45H31.3111L26.0838 32.2912H25.9205V45H24.0256V28.2727ZM47.9179 45.294C47.1229 45.294 46.4014 45.1443 45.7535 44.8448C45.1055 44.5399 44.5909 44.1016 44.2098 43.5298C43.8286 42.9527 43.6381 42.2557 43.6381 41.4389C43.6381 40.7202 43.7796 40.1375 44.0628 39.6911C44.3459 39.2391 44.7243 38.8852 45.1981 38.6293C45.6718 38.3733 46.1945 38.1828 46.7662 38.0575C47.3434 37.9268 47.9233 37.8234 48.5059 37.7472C49.2683 37.6491 49.8863 37.5756 50.36 37.5266C50.8392 37.4722 51.1876 37.3823 51.4055 37.2571C51.6287 37.1319 51.7403 36.9141 51.7403 36.6037V36.5384C51.7403 35.7325 51.5198 35.1063 51.0787 34.6598C50.6431 34.2133 49.9816 33.9901 49.094 33.9901C48.1738 33.9901 47.4523 34.1915 46.9296 34.5945C46.4069 34.9974 46.0393 35.4276 45.827 35.8849L43.9974 35.2315C44.3241 34.4692 44.7597 33.8757 45.3042 33.451C45.8542 33.0208 46.4532 32.7214 47.1011 32.5526C47.7545 32.3783 48.397 32.2912 49.0287 32.2912C49.4316 32.2912 49.8944 32.3402 50.4172 32.4382C50.9453 32.5308 51.4545 32.7241 51.9445 33.0181C52.44 33.3121 52.8511 33.7559 53.1778 34.3494C53.5045 34.9429 53.6679 35.7379 53.6679 36.7344V45H51.7403V43.3011H51.6423C51.5116 43.5734 51.2938 43.8647 50.9889 44.1751C50.684 44.4854 50.2783 44.7495 49.7719 44.9673C49.2655 45.1851 48.6475 45.294 47.9179 45.294ZM48.2119 43.5625C48.9742 43.5625 49.6167 43.4128 50.1395 43.1133C50.6676 42.8138 51.0651 42.4272 51.3319 41.9535C51.6042 41.4798 51.7403 40.9815 51.7403 40.4588V38.6946C51.6586 38.7926 51.479 38.8825 51.2013 38.9641C50.929 39.0404 50.6132 39.1084 50.2538 39.1683C49.8999 39.2228 49.5541 39.2718 49.2165 39.3153C48.8844 39.3535 48.6149 39.3861 48.4079 39.4134C47.907 39.4787 47.4387 39.5849 47.0031 39.7319C46.5729 39.8735 46.2245 40.0885 45.9577 40.3771C45.6963 40.6603 45.5656 41.0469 45.5656 41.5369C45.5656 42.2067 45.8134 42.7131 46.3089 43.0561C46.8098 43.3937 47.4442 43.5625 48.2119 43.5625ZM58.6236 32.4545L61.6293 37.5838L64.6349 32.4545H66.8565L62.8054 38.7273L66.8565 45H64.6349L61.6293 40.1321L58.6236 45H56.402L60.3878 38.7273L56.402 32.4545H58.6236ZM69.607 45V32.4545H71.5345V45H69.607ZM70.5871 30.3636C70.2114 30.3636 69.8874 30.2357 69.6151 29.9798C69.3483 29.7238 69.2149 29.4162 69.2149 29.0568C69.2149 28.6974 69.3483 28.3898 69.6151 28.1339C69.8874 27.878 70.2114 27.75 70.5871 27.75C70.9628 27.75 71.2841 27.878 71.5509 28.1339C71.8231 28.3898 71.9593 28.6974 71.9593 29.0568C71.9593 29.4162 71.8231 29.7238 71.5509 29.9798C71.2841 30.2357 70.9628 30.3636 70.5871 30.3636ZM75.065 45V32.4545H76.9272V34.4148H77.0906C77.3519 33.745 77.7739 33.225 78.3565 32.8548C78.9392 32.479 79.6388 32.2912 80.4556 32.2912C81.2833 32.2912 81.9721 32.479 82.522 32.8548C83.0774 33.225 83.5103 33.745 83.8207 34.4148H83.9513C84.2726 33.7668 84.7545 33.2522 85.397 32.8711C86.0395 32.4845 86.81 32.2912 87.7085 32.2912C88.8301 32.2912 89.7476 32.6424 90.4609 33.3448C91.1742 34.0418 91.5309 35.1281 91.5309 36.6037V45H89.6033V36.6037C89.6033 35.678 89.3501 35.0165 88.8438 34.619C88.3374 34.2215 87.7411 34.0227 87.055 34.0227C86.1729 34.0227 85.4896 34.2895 85.005 34.8232C84.5204 35.3513 84.2781 36.0211 84.2781 36.8324V45H82.3178V36.4077C82.3178 35.6944 82.0864 35.1199 81.6236 34.6843C81.1607 34.2433 80.5645 34.0227 79.8349 34.0227C79.3339 34.0227 78.8656 34.1561 78.43 34.4229C77.9999 34.6897 77.6514 35.06 77.3846 35.5337C77.1232 36.002 76.9925 36.5438 76.9925 37.1591V45H75.065ZM100.315 45.2614C99.1064 45.2614 98.0636 44.9946 97.187 44.4609C96.3158 43.9219 95.6433 43.1705 95.1696 42.2067C94.7013 41.2375 94.4672 40.1103 94.4672 38.8253C94.4672 37.5402 94.7013 36.4077 95.1696 35.4276C95.6433 34.442 96.3021 33.6742 97.1461 33.1243C97.9956 32.5689 98.9866 32.2912 100.119 32.2912C100.773 32.2912 101.418 32.4001 102.055 32.6179C102.692 32.8357 103.272 33.1896 103.795 33.6797C104.317 34.1643 104.734 34.8068 105.044 35.6072C105.355 36.4077 105.51 37.3932 105.51 38.5639V39.3807H95.8393V37.7145H103.55C103.55 37.0066 103.408 36.375 103.125 35.8196C102.847 35.2642 102.45 34.8259 101.932 34.5046C101.421 34.1834 100.816 34.0227 100.119 34.0227C99.3514 34.0227 98.6871 34.2133 98.1262 34.5945C97.5708 34.9702 97.1434 35.4602 96.8439 36.0646C96.5444 36.669 96.3947 37.317 96.3947 38.0085V39.1193C96.3947 40.0668 96.5581 40.8699 96.8848 41.5288C97.2169 42.1822 97.677 42.6804 98.2651 43.0234C98.8532 43.361 99.5365 43.5298 100.315 43.5298C100.822 43.5298 101.279 43.459 101.687 43.3175C102.101 43.1705 102.458 42.9527 102.757 42.6641C103.057 42.37 103.288 42.0052 103.452 41.5696L105.314 42.0923C105.118 42.724 104.788 43.2794 104.325 43.7585C103.863 44.2322 103.291 44.6025 102.61 44.8693C101.93 45.1307 101.165 45.2614 100.315 45.2614ZM115.858 45H113.735L119.877 28.2727H121.968L128.11 45H125.986L120.987 30.919H120.857L115.858 45ZM116.642 38.4659H125.202V40.2628H116.642V38.4659ZM132.381 28.2727V45H130.454V28.2727H132.381ZM146.17 32.4545L141.531 45H139.571L134.932 32.4545H137.022L140.486 42.4517H140.616L144.079 32.4545H146.17ZM153.525 45.2614C152.316 45.2614 151.274 44.9946 150.397 44.4609C149.526 43.9219 148.853 43.1705 148.38 42.2067C147.911 41.2375 147.677 40.1103 147.677 38.8253C147.677 37.5402 147.911 36.4077 148.38 35.4276C148.853 34.442 149.512 33.6742 150.356 33.1243C151.206 32.5689 152.197 32.2912 153.329 32.2912C153.983 32.2912 154.628 32.4001 155.265 32.6179C155.902 32.8357 156.482 33.1896 157.005 33.6797C157.527 34.1643 157.944 34.8068 158.254 35.6072C158.565 36.4077 158.72 37.3932 158.72 38.5639V39.3807H149.049V37.7145H156.759C156.759 37.0066 156.618 36.375 156.335 35.8196C156.057 35.2642 155.66 34.8259 155.142 34.5046C154.63 34.1834 154.026 34.0227 153.329 34.0227C152.561 34.0227 151.897 34.2133 151.336 34.5945C150.781 34.9702 150.353 35.4602 150.054 36.0646C149.754 36.669 149.605 37.317 149.605 38.0085V39.1193C149.605 40.0668 149.768 40.8699 150.095 41.5288C150.427 42.1822 150.887 42.6804 151.475 43.0234C152.063 43.361 152.746 43.5298 153.525 43.5298C154.032 43.5298 154.489 43.459 154.897 43.3175C155.311 43.1705 155.668 42.9527 155.967 42.6641C156.267 42.37 156.498 42.0052 156.661 41.5696L158.524 42.0923C158.328 42.724 157.998 43.2794 157.535 43.7585C157.073 44.2322 156.501 44.6025 155.82 44.8693C155.14 45.1307 154.375 45.2614 153.525 45.2614ZM170.538 35.2642L168.807 35.7543C168.698 35.4657 168.537 35.1853 168.325 34.913C168.118 34.6353 167.835 34.4066 167.475 34.2269C167.116 34.0472 166.656 33.9574 166.095 33.9574C165.327 33.9574 164.688 34.1344 164.176 34.4883C163.669 34.8368 163.416 35.2805 163.416 35.8196C163.416 36.2988 163.59 36.6772 163.939 36.9549C164.287 37.2326 164.832 37.464 165.572 37.6491L167.435 38.1065C168.556 38.3788 169.392 38.7953 169.942 39.3562C170.492 39.9116 170.767 40.6276 170.767 41.5043C170.767 42.223 170.56 42.8655 170.146 43.4318C169.738 43.9981 169.166 44.4446 168.431 44.7713C167.696 45.098 166.841 45.2614 165.866 45.2614C164.587 45.2614 163.528 44.9837 162.689 44.4283C161.851 43.8729 161.32 43.0616 161.097 41.9943L162.926 41.5369C163.1 42.2121 163.43 42.7185 163.914 43.0561C164.404 43.3937 165.044 43.5625 165.834 43.5625C166.732 43.5625 167.445 43.3719 167.974 42.9908C168.507 42.6042 168.774 42.1413 168.774 41.6023C168.774 41.1667 168.622 40.8018 168.317 40.5078C168.012 40.2083 167.543 39.9851 166.912 39.8381L164.821 39.348C163.672 39.0758 162.828 38.6538 162.289 38.082C161.755 37.5049 161.489 36.7834 161.489 35.9176C161.489 35.2098 161.687 34.5836 162.085 34.0391C162.488 33.4946 163.035 33.0671 163.726 32.7567C164.423 32.4464 165.213 32.2912 166.095 32.2912C167.337 32.2912 168.311 32.5634 169.019 33.108C169.732 33.6525 170.239 34.3712 170.538 35.2642ZM185.397 45.2614C184.188 45.2614 183.146 44.9946 182.269 44.4609C181.398 43.9219 180.725 43.1705 180.252 42.2067C179.783 41.2375 179.549 40.1103 179.549 38.8253C179.549 37.5402 179.783 36.4077 180.252 35.4276C180.725 34.442 181.384 33.6742 182.228 33.1243C183.078 32.5689 184.069 32.2912 185.201 32.2912C185.855 32.2912 186.5 32.4001 187.137 32.6179C187.774 32.8357 188.354 33.1896 188.877 33.6797C189.399 34.1643 189.816 34.8068 190.126 35.6072C190.437 36.4077 190.592 37.3932 190.592 38.5639V39.3807H180.921V37.7145H188.632C188.632 37.0066 188.49 36.375 188.207 35.8196C187.929 35.2642 187.532 34.8259 187.014 34.5046C186.503 34.1834 185.898 34.0227 185.201 34.0227C184.433 34.0227 183.769 34.2133 183.208 34.5945C182.653 34.9702 182.225 35.4602 181.926 36.0646C181.626 36.669 181.477 37.317 181.477 38.0085V39.1193C181.477 40.0668 181.64 40.8699 181.967 41.5288C182.299 42.1822 182.759 42.6804 183.347 43.0234C183.935 43.361 184.619 43.5298 185.397 43.5298C185.904 43.5298 186.361 43.459 186.769 43.3175C187.183 43.1705 187.54 42.9527 187.839 42.6641C188.139 42.37 188.37 42.0052 188.534 41.5696L190.396 42.0923C190.2 42.724 189.87 43.2794 189.407 43.7585C188.945 44.2322 188.373 44.6025 187.692 44.8693C187.012 45.1307 186.247 45.2614 185.397 45.2614ZM198.98 32.4545V34.0881H192.479V32.4545H198.98ZM194.373 29.4489H196.301V41.4062C196.301 41.9508 196.38 42.3591 196.538 42.6314C196.701 42.8982 196.908 43.0779 197.159 43.1705C197.414 43.2576 197.684 43.3011 197.967 43.3011C198.18 43.3011 198.354 43.2902 198.49 43.2685C198.626 43.2412 198.735 43.2195 198.817 43.2031L199.209 44.9347C199.078 44.9837 198.896 45.0327 198.661 45.0817C198.427 45.1361 198.131 45.1634 197.771 45.1634C197.227 45.1634 196.693 45.0463 196.17 44.8121C195.653 44.578 195.223 44.2214 194.88 43.7422C194.542 43.263 194.373 42.6586 194.373 41.929V29.4489ZM209.296 45H207.172L213.314 28.2727H215.405L221.547 45H219.423L214.425 30.919H214.294L209.296 45ZM210.08 38.4659H218.639V40.2628H210.08V38.4659ZM225.819 28.2727V45H223.891V28.2727H225.819ZM229.349 45V32.4545H231.277V45H229.349ZM230.329 30.3636C229.954 30.3636 229.63 30.2357 229.357 29.9798C229.091 29.7238 228.957 29.4162 228.957 29.0568C228.957 28.6974 229.091 28.3898 229.357 28.1339C229.63 27.878 229.954 27.75 230.329 27.75C230.705 27.75 231.026 27.878 231.293 28.1339C231.565 28.3898 231.701 28.6974 231.701 29.0568C231.701 29.4162 231.565 29.7238 231.293 29.9798C231.026 30.2357 230.705 30.3636 230.329 30.3636ZM236.245 32.4545L239.25 37.5838L242.256 32.4545H244.478L240.426 38.7273L244.478 45H242.256L239.25 40.1321L236.245 45H234.023L238.009 38.7273L234.023 32.4545H236.245ZM253.958 45V28.2727H259.806C260.971 28.2727 261.932 28.4742 262.689 28.8771C263.446 29.2746 264.01 29.811 264.38 30.4862C264.75 31.1559 264.935 31.8991 264.935 32.7159C264.935 33.4347 264.807 34.0282 264.552 34.4964C264.301 34.9647 263.969 35.335 263.555 35.6072C263.147 35.8795 262.703 36.081 262.224 36.2116V36.375C262.736 36.4077 263.25 36.5874 263.767 36.9141C264.285 37.2408 264.718 37.709 265.066 38.3189C265.415 38.9287 265.589 39.6747 265.589 40.5568C265.589 41.3954 265.398 42.1495 265.017 42.8192C264.636 43.489 264.034 44.0199 263.212 44.4119C262.39 44.804 261.32 45 260.002 45H253.958ZM255.984 43.2031H260.002C261.325 43.2031 262.265 42.9472 262.82 42.4354C263.381 41.9181 263.661 41.2919 263.661 40.5568C263.661 39.9905 263.517 39.4678 263.228 38.9886C262.94 38.504 262.529 38.1174 261.995 37.8288C261.461 37.5348 260.83 37.3878 260.1 37.3878H255.984V43.2031ZM255.984 35.6236H259.741C260.351 35.6236 260.901 35.5038 261.391 35.2642C261.886 35.0246 262.278 34.687 262.567 34.2514C262.861 33.8158 263.008 33.304 263.008 32.7159C263.008 31.9808 262.752 31.3574 262.24 30.8455C261.728 30.3282 260.917 30.0696 259.806 30.0696H255.984V35.6236ZM268.656 45V32.4545H270.518V34.3494H270.649C270.877 33.7287 271.291 33.225 271.89 32.8384C272.489 32.4518 273.164 32.2585 273.916 32.2585C274.057 32.2585 274.234 32.2612 274.447 32.2667C274.659 32.2721 274.82 32.2803 274.929 32.2912V34.2514C274.863 34.2351 274.713 34.2106 274.479 34.1779C274.251 34.1398 274.008 34.1207 273.752 34.1207C273.143 34.1207 272.598 34.2487 272.119 34.5046C271.645 34.7551 271.269 35.1036 270.992 35.5501C270.719 35.9911 270.583 36.4948 270.583 37.0611V45H268.656ZM285.12 39.8707V32.4545H287.047V45H285.12V42.8764H284.989C284.695 43.5135 284.238 44.0553 283.617 44.5018C282.996 44.9428 282.212 45.1634 281.265 45.1634C280.48 45.1634 279.783 44.9918 279.174 44.6488C278.564 44.3003 278.085 43.7776 277.736 43.0806C277.388 42.3782 277.213 41.4934 277.213 40.4261V32.4545H279.141V40.2955C279.141 41.2102 279.397 41.9399 279.909 42.4844C280.426 43.0289 281.085 43.3011 281.885 43.3011C282.364 43.3011 282.852 43.1786 283.347 42.9336C283.848 42.6886 284.268 42.3129 284.605 41.8065C284.948 41.3001 285.12 40.6548 285.12 39.8707ZM292.505 37.4531V45H290.578V32.4545H292.44V34.4148H292.603C292.897 33.7777 293.344 33.2659 293.943 32.8793C294.542 32.4872 295.315 32.2912 296.262 32.2912C297.112 32.2912 297.855 32.4654 298.492 32.8139C299.129 33.157 299.625 33.6797 299.979 34.3821C300.333 35.0791 300.509 35.9612 300.509 37.0284V45H298.582V37.1591C298.582 36.1735 298.326 35.4058 297.814 34.8558C297.302 34.3004 296.6 34.0227 295.707 34.0227C295.092 34.0227 294.542 34.1561 294.057 34.4229C293.578 34.6897 293.199 35.0791 292.922 35.5909C292.644 36.1027 292.505 36.7235 292.505 37.4531ZM309.292 45.2614C308.083 45.2614 307.04 44.9946 306.164 44.4609C305.292 43.9219 304.62 43.1705 304.146 42.2067C303.678 41.2375 303.444 40.1103 303.444 38.8253C303.444 37.5402 303.678 36.4077 304.146 35.4276C304.62 34.442 305.279 33.6742 306.123 33.1243C306.972 32.5689 307.963 32.2912 309.096 32.2912C309.749 32.2912 310.394 32.4001 311.031 32.6179C311.669 32.8357 312.248 33.1896 312.771 33.6797C313.294 34.1643 313.71 34.8068 314.021 35.6072C314.331 36.4077 314.486 37.3932 314.486 38.5639V39.3807H304.816V37.7145H312.526C312.526 37.0066 312.385 36.375 312.101 35.8196C311.824 35.2642 311.426 34.8259 310.909 34.5046C310.397 34.1834 309.793 34.0227 309.096 34.0227C308.328 34.0227 307.664 34.2133 307.103 34.5945C306.547 34.9702 306.12 35.4602 305.82 36.0646C305.521 36.669 305.371 37.317 305.371 38.0085V39.1193C305.371 40.0668 305.535 40.8699 305.861 41.5288C306.193 42.1822 306.654 42.6804 307.242 43.0234C307.83 43.361 308.513 43.5298 309.292 43.5298C309.798 43.5298 310.256 43.459 310.664 43.3175C311.078 43.1705 311.434 42.9527 311.734 42.6641C312.033 42.37 312.265 42.0052 312.428 41.5696L314.29 42.0923C314.094 42.724 313.765 43.2794 313.302 43.7585C312.839 44.2322 312.267 44.6025 311.587 44.8693C310.906 45.1307 310.141 45.2614 309.292 45.2614ZM322.874 32.4545V34.0881H316.373V32.4545H322.874ZM318.268 29.4489H320.195V41.4062C320.195 41.9508 320.274 42.3591 320.432 42.6314C320.596 42.8982 320.803 43.0779 321.053 43.1705C321.309 43.2576 321.579 43.3011 321.862 43.3011C322.074 43.3011 322.248 43.2902 322.384 43.2685C322.521 43.2412 322.629 43.2195 322.711 43.2031L323.103 44.9347C322.972 44.9837 322.79 45.0327 322.556 45.0817C322.322 45.1361 322.025 45.1634 321.666 45.1634C321.121 45.1634 320.588 45.0463 320.065 44.8121C319.548 44.578 319.117 44.2214 318.774 43.7422C318.437 43.263 318.268 42.6586 318.268 41.929V29.4489Z" fill="white"/>
</g>
<rect x="358" y="12" width="50" height="50" rx="10" fill="#FFFF00"/>
<path d="M368 37H397M368 26H397M368 48H397" stroke="#1E1E1E" stroke-width="4" stroke-linecap="round" stroke-linejoin="round"/>
<g filter="url(#filter0_d_5_936)">
<rect x="32" y="186" width="366" height="655" rx="25" fill="white"/>
<g clip-path="url(#clip1_5_936)">
<rect x="65" y="717.582" width="301" height="57.3015" rx="25" fill="#FFFF00"/>
<path d="M159.926 756V737.818H170.899V739.771H162.128V745.915H170.331V747.868H162.128V754.047H171.041V756H159.926ZM189.285 737.818V756H187.154L177.246 741.724H177.069V756H174.867V737.818H176.998L186.941 752.129H187.119V737.818H189.285ZM194.436 737.818L199.834 753.124H200.047L205.445 737.818H207.753L201.077 756H198.804L192.128 737.818H194.436ZM225.071 746.909C225.071 748.827 224.725 750.484 224.033 751.881C223.34 753.277 222.39 754.355 221.183 755.112C219.976 755.87 218.597 756.249 217.046 756.249C215.495 756.249 214.116 755.87 212.909 755.112C211.701 754.355 210.751 753.277 210.059 751.881C209.367 750.484 209.02 748.827 209.02 746.909C209.02 744.991 209.367 743.334 210.059 741.938C210.751 740.541 211.701 739.464 212.909 738.706C214.116 737.948 215.495 737.57 217.046 737.57C218.597 737.57 219.976 737.948 221.183 738.706C222.39 739.464 223.34 740.541 224.033 741.938C224.725 743.334 225.071 744.991 225.071 746.909ZM222.941 746.909C222.941 745.335 222.677 744.006 222.151 742.923C221.63 741.84 220.923 741.02 220.029 740.464C219.141 739.907 218.147 739.629 217.046 739.629C215.945 739.629 214.948 739.907 214.054 740.464C213.166 741.02 212.459 741.84 211.932 742.923C211.411 744.006 211.151 745.335 211.151 746.909C211.151 748.483 211.411 749.812 211.932 750.895C212.459 751.978 213.166 752.798 214.054 753.354C214.948 753.911 215.945 754.189 217.046 754.189C218.147 754.189 219.141 753.911 220.029 753.354C220.923 752.798 221.63 751.978 222.151 750.895C222.677 749.812 222.941 748.483 222.941 746.909ZM226.356 737.818H228.878L233.92 746.305H234.133L239.176 737.818H241.697L235.128 748.507V756H232.926V748.507L226.356 737.818ZM244.545 756V737.818H255.518V739.771H246.747V745.915H254.95V747.868H246.747V754.047H255.66V756H244.545ZM259.486 756V737.818H265.63C267.05 737.818 268.216 738.061 269.128 738.546C270.039 739.026 270.714 739.685 271.152 740.526C271.59 741.366 271.809 742.322 271.809 743.393C271.809 744.465 271.59 745.415 271.152 746.243C270.714 747.072 270.042 747.723 269.137 748.196C268.231 748.664 267.074 748.898 265.665 748.898H260.694V746.909H265.594C266.565 746.909 267.346 746.767 267.938 746.483C268.536 746.199 268.968 745.796 269.234 745.276C269.506 744.749 269.643 744.121 269.643 743.393C269.643 742.665 269.506 742.029 269.234 741.485C268.962 740.94 268.527 740.52 267.929 740.224C267.331 739.922 266.541 739.771 265.559 739.771H261.688V756H259.486ZM268.045 747.832L272.519 756H269.962L265.559 747.832H268.045Z" fill="black"/>
</g>
<g clip-path="url(#clip2_5_936)">
<path d="M67.0256 530.238H69.4432L75.1278 544.123H75.3239L81.0085 530.238H83.4261V546.965H81.5312V534.256H81.3679L76.1406 546.965H74.3111L69.0838 534.256H68.9205V546.965H67.0256V530.238ZM87.4875 546.965V530.238H97.5827V532.035H89.5131V537.687H97.0599V539.484H89.5131V545.168H97.7133V546.965H87.4875ZM110.381 534.42C110.283 533.592 109.886 532.949 109.189 532.492C108.492 532.035 107.637 531.806 106.624 531.806C105.884 531.806 105.236 531.926 104.68 532.165C104.13 532.405 103.7 532.734 103.39 533.154C103.085 533.573 102.932 534.049 102.932 534.583C102.932 535.029 103.039 535.413 103.251 535.735C103.469 536.05 103.746 536.315 104.084 536.527C104.422 536.734 104.776 536.905 105.146 537.041C105.516 537.172 105.856 537.278 106.167 537.36L107.866 537.817C108.301 537.932 108.786 538.09 109.32 538.291C109.859 538.493 110.373 538.768 110.863 539.116C111.359 539.459 111.767 539.9 112.088 540.439C112.41 540.978 112.57 541.64 112.57 542.424C112.57 543.328 112.333 544.145 111.86 544.874C111.391 545.604 110.705 546.184 109.801 546.614C108.903 547.044 107.811 547.259 106.526 547.259C105.328 547.259 104.291 547.066 103.414 546.679C102.543 546.293 101.857 545.754 101.356 545.062C100.861 544.371 100.58 543.567 100.515 542.653H102.606C102.66 543.284 102.873 543.807 103.243 544.221C103.619 544.629 104.092 544.934 104.664 545.136C105.241 545.332 105.862 545.43 106.526 545.43C107.299 545.43 107.994 545.304 108.609 545.054C109.224 544.798 109.712 544.444 110.071 543.992C110.43 543.535 110.61 543.001 110.61 542.391C110.61 541.836 110.455 541.384 110.144 541.035C109.834 540.687 109.426 540.404 108.919 540.186C108.413 539.968 107.866 539.778 107.278 539.614L105.219 539.026C103.913 538.65 102.878 538.114 102.116 537.417C101.353 536.72 100.972 535.808 100.972 534.681C100.972 533.744 101.225 532.928 101.732 532.231C102.244 531.528 102.93 530.984 103.79 530.597C104.656 530.205 105.622 530.009 106.69 530.009C107.768 530.009 108.726 530.202 109.565 530.589C110.403 530.97 111.067 531.493 111.557 532.157C112.053 532.822 112.314 533.576 112.342 534.42H110.381ZM125.048 534.42C124.95 533.592 124.553 532.949 123.856 532.492C123.159 532.035 122.304 531.806 121.291 531.806C120.551 531.806 119.903 531.926 119.347 532.165C118.797 532.405 118.367 532.734 118.057 533.154C117.752 533.573 117.599 534.049 117.599 534.583C117.599 535.029 117.706 535.413 117.918 535.735C118.136 536.05 118.413 536.315 118.751 536.527C119.089 536.734 119.443 536.905 119.813 537.041C120.183 537.172 120.523 537.278 120.834 537.36L122.533 537.817C122.968 537.932 123.453 538.09 123.987 538.291C124.526 538.493 125.04 538.768 125.53 539.116C126.026 539.459 126.434 539.9 126.755 540.439C127.077 540.978 127.237 541.64 127.237 542.424C127.237 543.328 127 544.145 126.527 544.874C126.058 545.604 125.372 546.184 124.468 546.614C123.57 547.044 122.478 547.259 121.193 547.259C119.995 547.259 118.958 547.066 118.081 546.679C117.21 546.293 116.524 545.754 116.023 545.062C115.528 544.371 115.247 543.567 115.182 542.653H117.273C117.327 543.284 117.54 543.807 117.91 544.221C118.286 544.629 118.759 544.934 119.331 545.136C119.908 545.332 120.529 545.43 121.193 545.43C121.966 545.43 122.661 545.304 123.276 545.054C123.891 544.798 124.379 544.444 124.738 543.992C125.097 543.535 125.277 543.001 125.277 542.391C125.277 541.836 125.122 541.384 124.811 541.035C124.501 540.687 124.093 540.404 123.586 540.186C123.08 539.968 122.533 539.778 121.945 539.614L119.886 539.026C118.58 538.65 117.545 538.114 116.783 537.417C116.02 536.72 115.639 535.808 115.639 534.681C115.639 533.744 115.892 532.928 116.399 532.231C116.911 531.528 117.597 530.984 118.457 530.597C119.323 530.205 120.289 530.009 121.357 530.009C122.435 530.009 123.393 530.202 124.232 530.589C125.07 530.97 125.734 531.493 126.224 532.157C126.72 532.822 126.981 533.576 127.009 534.42H125.048ZM131.254 546.965H129.13L135.272 530.238H137.363L143.505 546.965H141.381L136.383 532.884H136.252L131.254 546.965ZM132.038 540.431H140.597V542.228H132.038V540.431ZM156.759 535.465C156.579 534.915 156.343 534.422 156.048 533.987C155.76 533.546 155.414 533.17 155.011 532.86C154.614 532.549 154.162 532.312 153.655 532.149C153.149 531.986 152.594 531.904 151.989 531.904C150.998 531.904 150.097 532.16 149.286 532.672C148.474 533.184 147.829 533.938 147.35 534.934C146.871 535.931 146.631 537.153 146.631 538.601C146.631 540.05 146.874 541.272 147.358 542.269C147.843 543.265 148.499 544.019 149.327 544.531C150.154 545.043 151.085 545.299 152.12 545.299C153.078 545.299 153.922 545.095 154.652 544.686C155.387 544.272 155.959 543.69 156.367 542.938C156.781 542.182 156.988 541.291 156.988 540.268L157.608 540.398H152.577V538.601H158.948V540.398C158.948 541.776 158.654 542.974 158.066 543.992C157.483 545.01 156.677 545.8 155.648 546.361C154.625 546.916 153.448 547.194 152.12 547.194C150.639 547.194 149.337 546.845 148.216 546.148C147.099 545.451 146.228 544.46 145.602 543.175C144.981 541.89 144.671 540.366 144.671 538.601C144.671 537.278 144.848 536.089 145.202 535.032C145.561 533.97 146.068 533.067 146.721 532.321C147.374 531.575 148.148 531.003 149.041 530.605C149.934 530.208 150.916 530.009 151.989 530.009C152.871 530.009 153.693 530.143 154.456 530.409C155.224 530.671 155.907 531.044 156.506 531.528C157.11 532.007 157.614 532.582 158.017 533.252C158.42 533.916 158.698 534.654 158.85 535.465H156.759ZM162.417 546.965V530.238H172.512V532.035H164.443V537.687H171.99V539.484H164.443V545.168H172.643V546.965H162.417Z" fill="black"/>
<rect x="65.5" y="556.336" width="300" height="125.945" rx="24.5" stroke="black"/>
</g>
<g clip-path="url(#clip3_5_936)">
<path d="M80.2898 433.533V450.26H78.3295L69.2145 437.127H69.0511V450.26H67.0256V433.533H68.9858L78.1335 446.699H78.2969V433.533H80.2898ZM98.4566 441.897C98.4566 443.661 98.1381 445.185 97.501 446.47C96.8639 447.756 95.99 448.747 94.8792 449.443C93.7684 450.14 92.4997 450.489 91.0731 450.489C89.6465 450.489 88.3778 450.14 87.267 449.443C86.1562 448.747 85.2822 447.756 84.6452 446.47C84.0081 445.185 83.6895 443.661 83.6895 441.897C83.6895 440.132 84.0081 438.608 84.6452 437.323C85.2822 436.038 86.1562 435.047 87.267 434.35C88.3778 433.653 89.6465 433.304 91.0731 433.304C92.4997 433.304 93.7684 433.653 94.8792 434.35C95.99 435.047 96.8639 436.038 97.501 437.323C98.1381 438.608 98.4566 440.132 98.4566 441.897ZM96.4964 441.897C96.4964 440.448 96.2541 439.226 95.7694 438.229C95.2903 437.233 94.6396 436.479 93.8174 435.967C93.0006 435.455 92.0858 435.199 91.0731 435.199C90.0603 435.199 89.1428 435.455 88.3206 435.967C87.5038 436.479 86.8531 437.233 86.3685 438.229C85.8894 439.226 85.6498 440.448 85.6498 441.897C85.6498 443.345 85.8894 444.567 86.3685 445.564C86.8531 446.56 87.5038 447.314 88.3206 447.826C89.1428 448.338 90.0603 448.594 91.0731 448.594C92.0858 448.594 93.0006 448.338 93.8174 447.826C94.6396 447.314 95.2903 446.56 95.7694 445.564C96.2541 444.567 96.4964 443.345 96.4964 441.897ZM101.862 433.533H104.28L109.965 447.418H110.161L115.845 433.533H118.263V450.26H116.368V437.551H116.205L110.978 450.26H109.148L103.921 437.551H103.757V450.26H101.862V433.533Z" fill="black"/>
<rect x="65.5" y="457.527" width="300" height="35.144" rx="17.572" stroke="black"/>
</g>
<g clip-path="url(#clip4_5_936)">
<rect x="64.5" y="374.977" width="300" height="35.144" rx="17.572" stroke="black"/>
<path d="M66.0256 367.513V350.786H71.6776C72.9898 350.786 74.0625 351.023 74.8956 351.496C75.7341 351.965 76.3549 352.599 76.7578 353.399C77.1607 354.2 77.3622 355.093 77.3622 356.078C77.3622 357.064 77.1607 357.96 76.7578 358.765C76.3603 359.571 75.745 360.214 74.9119 360.693C74.0788 361.167 73.0116 361.404 71.7102 361.404H67.6591V359.607H71.6449C72.5433 359.607 73.2648 359.452 73.8093 359.141C74.3538 358.831 74.7486 358.411 74.9936 357.883C75.2441 357.35 75.3693 356.748 75.3693 356.078C75.3693 355.409 75.2441 354.81 74.9936 354.281C74.7486 353.753 74.3511 353.339 73.8011 353.04C73.2512 352.735 72.5215 352.583 71.6122 352.583H68.0511V367.513H66.0256ZM80.6252 367.513V350.786H86.2772C87.584 350.786 88.6567 351.009 89.4952 351.455C90.3337 351.896 90.9545 352.504 91.3574 353.277C91.7604 354.05 91.9618 354.929 91.9618 355.915C91.9618 356.9 91.7604 357.774 91.3574 358.537C90.9545 359.299 90.3365 359.898 89.5034 360.334C88.6703 360.764 87.6058 360.979 86.3098 360.979H81.736V359.149H86.2445C87.1375 359.149 87.8562 359.019 88.4007 358.757C88.9507 358.496 89.3482 358.126 89.5932 357.646C89.8437 357.162 89.9689 356.585 89.9689 355.915C89.9689 355.245 89.8437 354.66 89.5932 354.159C89.3427 353.658 88.9425 353.271 88.3926 352.999C87.8426 352.721 87.1157 352.583 86.2118 352.583H82.6507V367.513H80.6252ZM88.4988 359.999L92.6152 367.513H90.263L86.2118 359.999H88.4988ZM95.3371 367.513V350.786H105.432V352.583H97.3627V358.235H104.91V360.031H97.3627V365.716H105.563V367.513H95.3371ZM99.4862 349.087L101.479 345.297H103.733L101.185 349.087H99.4862ZM122.347 350.786V367.513H120.387L111.272 354.379H111.109V367.513H109.083V350.786H111.043L120.191 363.952H120.354V350.786H122.347ZM140.514 359.149C140.514 360.914 140.196 362.438 139.559 363.723C138.922 365.008 138.048 365.999 136.937 366.696C135.826 367.393 134.557 367.742 133.131 367.742C131.704 367.742 130.435 367.393 129.325 366.696C128.214 365.999 127.34 365.008 126.703 363.723C126.066 362.438 125.747 360.914 125.747 359.149C125.747 357.385 126.066 355.86 126.703 354.575C127.34 353.29 128.214 352.299 129.325 351.602C130.435 350.905 131.704 350.557 133.131 350.557C134.557 350.557 135.826 350.905 136.937 351.602C138.048 352.299 138.922 353.29 139.559 354.575C140.196 355.86 140.514 357.385 140.514 359.149ZM138.554 359.149C138.554 357.701 138.312 356.478 137.827 355.482C137.348 354.486 136.697 353.731 135.875 353.22C135.058 352.708 134.143 352.452 133.131 352.452C132.118 352.452 131.2 352.708 130.378 353.22C129.561 353.731 128.911 354.486 128.426 355.482C127.947 356.478 127.707 357.701 127.707 359.149C127.707 360.598 127.947 361.82 128.426 362.817C128.911 363.813 129.561 364.567 130.378 365.079C131.2 365.591 132.118 365.847 133.131 365.847C134.143 365.847 135.058 365.591 135.875 365.079C136.697 364.567 137.348 363.813 137.827 362.817C138.312 361.82 138.554 360.598 138.554 359.149ZM143.92 350.786H146.338L152.022 364.671H152.218L157.903 350.786H160.321V367.513H158.426V354.804H158.262L153.035 367.513H151.206L145.978 354.804H145.815V367.513H143.92V350.786Z" fill="black"/>
</g>
<rect x="133" y="279" width="170" height="20" rx="10" fill="#FFFF00"/>
<path d="M174.486 246.5H172.46C172.34 245.917 172.131 245.406 171.831 244.964C171.537 244.523 171.178 244.153 170.753 243.854C170.334 243.549 169.868 243.32 169.357 243.168C168.845 243.015 168.311 242.939 167.756 242.939C166.743 242.939 165.825 243.195 165.003 243.707C164.186 244.219 163.536 244.973 163.051 245.969C162.572 246.966 162.332 248.188 162.332 249.636C162.332 251.085 162.572 252.307 163.051 253.304C163.536 254.3 164.186 255.054 165.003 255.566C165.825 256.078 166.743 256.334 167.756 256.334C168.311 256.334 168.845 256.258 169.357 256.105C169.868 255.953 170.334 255.727 170.753 255.427C171.178 255.122 171.537 254.749 171.831 254.308C172.131 253.862 172.34 253.35 172.46 252.773H174.486C174.333 253.628 174.056 254.393 173.653 255.068C173.25 255.743 172.749 256.317 172.15 256.791C171.551 257.259 170.878 257.616 170.132 257.861C169.392 258.106 168.6 258.229 167.756 258.229C166.329 258.229 165.06 257.88 163.95 257.183C162.839 256.486 161.965 255.495 161.328 254.21C160.691 252.925 160.372 251.401 160.372 249.636C160.372 247.872 160.691 246.348 161.328 245.062C161.965 243.777 162.839 242.786 163.95 242.089C165.06 241.393 166.329 241.044 167.756 241.044C168.6 241.044 169.392 241.167 170.132 241.412C170.878 241.657 171.551 242.016 172.15 242.49C172.749 242.958 173.25 243.53 173.653 244.205C174.056 244.875 174.333 245.64 174.486 246.5ZM191.873 249.636C191.873 251.401 191.554 252.925 190.917 254.21C190.28 255.495 189.406 256.486 188.295 257.183C187.184 257.88 185.916 258.229 184.489 258.229C183.062 258.229 181.794 257.88 180.683 257.183C179.572 256.486 178.698 255.495 178.061 254.21C177.424 252.925 177.106 251.401 177.106 249.636C177.106 247.872 177.424 246.348 178.061 245.062C178.698 243.777 179.572 242.786 180.683 242.089C181.794 241.393 183.062 241.044 184.489 241.044C185.916 241.044 187.184 241.393 188.295 242.089C189.406 242.786 190.28 243.777 190.917 245.062C191.554 246.348 191.873 247.872 191.873 249.636ZM189.912 249.636C189.912 248.188 189.67 246.966 189.185 245.969C188.706 244.973 188.056 244.219 187.233 243.707C186.417 243.195 185.502 242.939 184.489 242.939C183.476 242.939 182.559 243.195 181.737 243.707C180.92 244.219 180.269 244.973 179.785 245.969C179.305 246.966 179.066 248.188 179.066 249.636C179.066 251.085 179.305 252.307 179.785 253.304C180.269 254.3 180.92 255.054 181.737 255.566C182.559 256.078 183.476 256.334 184.489 256.334C185.502 256.334 186.417 256.078 187.233 255.566C188.056 255.054 188.706 254.3 189.185 253.304C189.67 252.307 189.912 251.085 189.912 249.636ZM208.543 241.273V258H206.582L197.467 244.866H197.304V258H195.278V241.273H197.239L206.386 254.439H206.55V241.273H208.543ZM211.681 243.07V241.273H224.227V243.07H218.967V258H216.941V243.07H211.681ZM226.085 258H223.961L230.103 241.273H232.194L238.336 258H236.213L231.214 243.919H231.083L226.085 258ZM226.869 251.466H235.428V253.263H226.869V251.466ZM253.616 246.5H251.59C251.47 245.917 251.261 245.406 250.961 244.964C250.667 244.523 250.308 244.153 249.883 243.854C249.464 243.549 248.998 243.32 248.486 243.168C247.975 243.015 247.441 242.939 246.886 242.939C245.873 242.939 244.955 243.195 244.133 243.707C243.316 244.219 242.666 244.973 242.181 245.969C241.702 246.966 241.462 248.188 241.462 249.636C241.462 251.085 241.702 252.307 242.181 253.304C242.666 254.3 243.316 255.054 244.133 255.566C244.955 256.078 245.873 256.334 246.886 256.334C247.441 256.334 247.975 256.258 248.486 256.105C248.998 255.953 249.464 255.727 249.883 255.427C250.308 255.122 250.667 254.749 250.961 254.308C251.261 253.862 251.47 253.35 251.59 252.773H253.616C253.463 253.628 253.186 254.393 252.783 255.068C252.38 255.743 251.879 256.317 251.28 256.791C250.681 257.259 250.008 257.616 249.262 257.861C248.522 258.106 247.73 258.229 246.886 258.229C245.459 258.229 244.19 257.88 243.079 257.183C241.969 256.486 241.095 255.495 240.458 254.21C239.821 252.925 239.502 251.401 239.502 249.636C239.502 247.872 239.821 246.348 240.458 245.062C241.095 243.777 241.969 242.786 243.079 242.089C244.19 241.393 245.459 241.044 246.886 241.044C247.73 241.044 248.522 241.167 249.262 241.412C250.008 241.657 250.681 242.016 251.28 242.49C251.879 242.958 252.38 243.53 252.783 244.205C253.186 244.875 253.463 245.64 253.616 246.5ZM255.974 243.07V241.273H268.52V243.07H263.26V258H261.234V243.07H255.974Z" fill="black"/>
</g>
<defs>
<filter id="filter0_d_5_936" x="23" y="177" width="392" height="681" filterUnits="userSpaceOnUse" color-interpolation-filters="sRGB">
<feFlood flood-opacity="0" result="BackgroundImageFix"/>
<feColorMatrix in="SourceAlpha" type="matrix" values="0 0 0 0 0 0 0 0 0 0 0 0 0 0 0 0 0 0 127 0" result="hardAlpha"/>
<feOffset dx="4" dy="4"/>
<feGaussianBlur stdDeviation="6.5"/>
<feComposite in2="hardAlpha" operator="out"/>
<feColorMatrix type="matrix" values="0 0 0 0 0 0 0 0 0 0 0 0 0 0 0 0 0 0 0.25 0"/>
<feBlend mode="normal" in2="BackgroundImageFix" result="effect1_dropShadow_5_936"/>
<feBlend mode="normal" in="SourceGraphic" in2="effect1_dropShadow_5_936" result="shape"/>
</filter>
<clipPath id="clip0_5_936">
<rect width="303" height="28" fill="white" transform="translate(22 23)"/>
</clipPath>
<clipPath id="clip1_5_936">
<rect width="301" height="57.4186" fill="white" transform="translate(65 717.582)"/>
</clipPath>
<clipPath id="clip2_5_936">
<rect width="319" height="157.816" fill="white" transform="translate(65 524.965)"/>
</clipPath>
<clipPath id="clip3_5_936">
<rect width="319" height="64.9109" fill="white" transform="translate(65 428.26)"/>
</clipPath>
<clipPath id="clip4_5_936">
<rect width="319" height="65.1079" fill="white" transform="translate(64 345.513)"/>
</clipPath>
</defs>
</svg>
